<svg xmlns="http://www.w3.org/2000/svg" viewBox="0 0 274.27 375.12"><defs><style>.cls-1{fill:#242424;}.cls-2{font-size:62px;font-family:AquireBold, Aquire;}.cls-3{letter-spacing:-0.01em;}.cls-4{letter-spacing:-0.05em;}.cls-5{font-family:AquireLight, Aquire;}.cls-6{letter-spacing:-0.03em;}.cls-7{letter-spacing:-0.09em;}</style></defs><title>Asset 2</title><g id="Layer_2" data-name="Layer 2"><g id="Layer_1-2" data-name="Layer 1"><path class="cls-1" d="M68.21,36.9c-2.37-.07-6-.71-11.77-3.12,0,0,14.78,7.51,18.89,20.75,0,0,1.31-6.2-2.17-16.18,0-.1,0-.18-.06-.26a25.27,25.27,0,0,1,.14,8.08A28.82,28.82,0,0,0,68.21,36.9Z"/><path class="cls-1" d="M131.32,24c1.87-.58,3.82.41,5.7,2.25-2.68-4.51-6-8.47-9.07-7.51-4.85,1.52-4.14,20,2.71,35.84C126.47,39.51,126.81,25.36,131.32,24Z"/><path class="cls-1" d="M188.58,80.83c.94-6.72,2.49-15.57,4.61-20.24l-2.84,4.61a3.4,3.4,0,0,1-5.62.25L172.65,49.24S182.75,66,186.3,80.93A1.16,1.16,0,0,0,188.58,80.83Z"/><path class="cls-1" d="M267,57.08C254.82,27.35,227,47.58,209.4,35.4S184,17.85,165.63,20.74s-14,3.72-38-17.55C117.11-6.72,91.1,9.6,91.1,9.6s28.08-12.6,39-.83S146.64,32.31,165,28.18s37.58,12.18,37.58,12.18,9.53,8.59,27.64,7c-5.32,6.42-5.86,15.78-5.86,15.78a25.21,25.21,0,0,1,5.21-10c6.67-7.61,18.54-7.15,25,.62,8.26,9.91,15,28.23,12.61,51.89-1.3,12.64-3.24,25.81-5.58,37.74.26-7.16.24-15.44-.19-25.05,0,0-2,59-15.49,67.26a3.28,3.28,0,0,1-1.66.31c-5.13-.46-10.57,0-14.66-1h16.53s-15.27-1.19-19.1-3.72c0,0,4,1.14,13.42-1,0,0-9.49.83-13.83-8.15s4.13-30.56,1.75-41.71c0,0-.61,11.76-4.87,20.64A135.84,135.84,0,0,0,222,125.84C218.49,106,223.44,85,223.44,85S219.65,92.31,219,96c0,0-.75-21.6-4.88-30.07,0,0,4.75,29.52,2.06,44.39s2.48,72.68-1.85,76.81-20.44,4.33-20.44,4.33,12.1-.7,16.75-6.19c0,0-31.67,6.81-43.9-5.65.69-5.35-2.09-35.54-4.57-46.3a188.4,188.4,0,0,1-4.26-34.15c-.08-8.44-11.51-27.87-11.51-27.87s9.29,29.32,11.15,60.39,6.61,57.71-8.47,60.39c-4,.7-7.87,1.62-11.73,2.44-.85.16-17.52,3.19-20.91-4.58a24.56,24.56,0,0,0,1.77,4.77A10.91,10.91,0,0,1,107.46,187c-2.94-8.36-1.16-18.27-1.16-18.27s-3.57,11.12-1.75,20a10.68,10.68,0,0,1-.65-2.82c-1.24-13.32,6.5-41-.31-61.23,0,0,.51,5.89-.41,8.16,0,0-14.35-45.31-30.87-69.16a291,291,0,0,1,17.9,40.43A159.15,159.15,0,0,0,74,80.21s16.34,24.2,21.75,41.66c3.26,12.35,5.37,25.27,4.92,37.26-.22.36-9.76,15.31-37.91,18.37,0,0,13.4,2.49,25.09.55-7.63,3.06-17.1,5.09-22.92,6.15a17.41,17.41,0,0,1-2.69.28c-25.38-1.22-35.83-62.77-35.83-62.77-.25,8,1.21,18,3,27.16a155.93,155.93,0,0,1-6.24-20.35c-7-22.3-.31-18.69-2-29s-10.94-20.75-10.43-35S22.14,26.11,33,19,73.24,31.38,91.2,16.82c0,0-26,1.24-41.5-6.5S11,24.25,3.25,65.75C2,88.67,20.59,133,10.37,153.09s-15.18,35-4,54.51,10.53,39,65.35,31.27c46.28-5.6,58.33.59,61.25-21.5a27.75,27.75,0,0,0-.54-10.47,23.81,23.81,0,0,0-.85-2.73c9.2.18,25.66-.55,28.23-7.93,2.75,7.64,19.27,11.15,48.18,5.37,9.08-.21,11.76-9.91,11.76-9.91s26.64,7,33.45-2.89,13.42-26,15.07-45.84S281.66,94.45,267,57.08ZM26.16,171.21c-17,12.07-15,37.62-15,37.62-8.2-10.22-12.08-31.74-1.39-46S17,131.72,17,131.72l1.47,3.22a29.39,29.39,0,0,1,.31,23.49h0c2.94-1.86,7.35-1.08,7.35-1.08-12.31,3.56-14,22.22-14,22.22C17.65,172.91,26.16,171.21,26.16,171.21Z"/><text class="cls-2" transform="translate(10.19 300.72)">M<tspan class="cls-3" x="43.15" y="0">u</tspan><tspan class="cls-4" x="85.56" y="0">s</tspan><tspan x="125.18" y="0">cle</tspan><tspan class="cls-5"><tspan class="cls-6" x="40.14" y="74.4">M</tspan><tspan class="cls-7" x="79.52" y="74.4">a</tspan><tspan x="119.63" y="74.4">gic</tspan></tspan></text></g></g></svg>