<svg width="250" height="250" viewBox="0 0 250 250" fill="none" xmlns="http://www.w3.org/2000/svg">
<circle cx="125" cy="125" r="125" fill="white"/>
<path fill-rule="evenodd" clip-rule="evenodd" d="M81.9373 176.263L76.0016 179.464C73.0981 181.029 69.9855 182.053 66.8132 182.485L64.5908 182.789C60.9885 183.28 57.4011 182.686 54.2555 181.077L52.2472 180.05C49.8293 178.814 47.9443 176.723 46.9005 174.12C46.1167 172.166 45.8379 169.998 46.0903 167.822L47.0414 159.624C47.2669 157.68 47.8072 155.767 48.6388 153.968L49.6295 151.826C51.1302 148.579 53.8708 146.083 57.1291 144.994L58.0533 142.7L55.0082 130.14C54.5169 128.113 54.1885 126.036 54.0262 123.929L52.8915 109.198L52.24 83.6145L52.931 70.019C52.9815 69.0247 53.3887 68.06 54.071 67.3181C55.0442 66.26 56.4493 65.7903 57.7512 66.0879L58.7673 66.3202C59.0318 66.3807 59.312 66.3655 59.5794 66.2761C59.9759 66.1435 60.3953 66.1757 60.7474 66.3657L61.9012 66.9885L65.5452 66.4454C66.6859 66.2753 67.8309 66.1905 68.9713 66.1915C71.7559 66.1939 74.4835 66.7078 77.0304 67.7099L80.3224 69.0052C82.3748 69.8127 84.3397 70.8186 86.193 72.0105L93.0524 76.4221L102.458 84.6899L106.131 88.1423C107.832 89.7411 109.371 91.5174 110.728 93.4472L110.948 93.76C112.498 94.2083 113.832 95.1801 114.751 96.5309L119.66 103.748L123.428 109.352C123.998 110.201 124.417 111.158 124.665 112.18C125.004 113.578 125.015 115.064 124.698 116.517L124.479 117.519L125.12 118.826L125.525 118.001L125.306 117C124.989 115.547 125 114.061 125.339 112.663C125.587 111.641 126.005 110.684 126.576 109.835L130.344 104.231L135.253 97.0137C136.172 95.6629 137.506 94.691 139.056 94.2428L139.276 93.93C140.633 92.0003 142.172 90.2239 143.873 88.6251L147.546 85.1728L156.952 76.905L163.811 72.4935C165.665 71.3016 167.63 70.2957 169.682 69.4882L172.974 68.1929C175.521 67.1908 178.249 66.6769 181.033 66.6746C182.174 66.6736 183.319 66.7585 184.46 66.9285L188.104 67.4716L189.258 66.8489C189.61 66.6589 190.029 66.6267 190.426 66.7593C190.693 66.8487 190.973 66.8639 191.238 66.8034L192.254 66.5711C193.556 66.2735 194.961 66.7432 195.934 67.8013C196.616 68.5433 197.024 69.5079 197.074 70.5023L197.765 84.0978L197.114 109.681L195.979 124.412C195.817 126.519 195.489 128.597 194.997 130.623L191.952 143.183L192.876 145.477C196.135 146.566 198.875 149.063 200.376 152.309L201.367 154.452C202.199 156.251 202.739 158.164 202.964 160.108L203.916 168.306C204.168 170.482 203.889 172.649 203.105 174.604C202.062 177.206 200.177 179.297 197.759 180.534L195.75 181.561C192.605 183.169 189.017 183.763 185.415 183.272L183.192 182.969C180.02 182.536 176.907 181.512 174.004 179.947L168.068 176.747C166.899 176.116 165.883 175.194 165.117 174.067C164.45 173.085 163.99 171.974 163.773 170.817L162.811 165.693L162.623 163.204C162.34 159.458 162.635 155.733 163.499 152.172C164.476 148.141 166.165 144.385 168.482 141.089L168.931 140.45L166.167 135.06C164.657 132.278 163.829 129.188 163.761 126.085L163.747 125.447C163.723 124.364 163.781 123.286 163.92 122.225L164.284 119.45C164.484 117.931 164.842 116.452 165.354 115.038C166.325 112.354 167.832 109.949 169.779 107.975L171.243 106.491C170.337 106.188 169.399 106.054 168.472 106.095L162.017 106.384L154.515 105.844C153.215 105.75 151.918 105.787 150.643 105.952L149.151 106.145C147.868 106.311 146.636 106.707 145.509 107.315L145.416 107.699C144.886 109.885 144.128 111.988 143.155 113.971C143.398 117.01 143.165 120.033 142.465 122.922L142.299 123.608L141.738 125.922C141.595 126.51 141.297 127.034 140.876 127.435C140.08 128.195 138.932 128.437 137.846 128.074L137.198 127.857L135.829 127.4L132.975 128.843C132.91 128.876 132.838 128.897 132.764 128.905C130.688 129.116 128.568 128.27 127.057 126.626L126.874 126.428C126.842 126.392 126.812 126.354 126.786 126.314L124.848 123.274L123.217 125.831C123.191 125.872 123.162 125.91 123.13 125.945L122.947 126.144C121.435 127.787 119.316 128.633 117.24 128.422C117.166 128.414 117.094 128.394 117.029 128.36L114.175 126.917L112.806 127.374L112.158 127.591C111.072 127.954 109.924 127.712 109.128 126.952C108.707 126.551 108.409 126.027 108.266 125.439L107.705 123.125L107.539 122.439C106.839 119.551 106.606 116.527 106.849 113.488C105.876 111.505 105.118 109.402 104.589 107.216L104.496 106.833C103.368 106.224 102.137 105.828 100.853 105.662L99.3616 105.469C98.086 105.304 96.7894 105.268 95.4895 105.361L87.9873 105.901L81.5328 105.612C80.6059 105.571 79.6674 105.705 78.7619 106.008L80.2253 107.491C82.1728 109.466 83.6793 111.871 84.6505 114.555C85.1623 115.969 85.5209 117.448 85.7202 118.967L86.0844 121.742C86.2236 122.803 86.2816 123.881 86.2578 124.964L86.2438 125.602C86.1756 128.705 85.3473 131.795 83.8379 134.577L81.074 139.966L81.5231 140.605C83.8401 143.901 85.5289 147.658 86.5062 151.688C87.3696 155.25 87.6653 158.975 87.3821 162.721L87.1939 165.21L86.2321 170.333C86.0148 171.491 85.5554 172.602 84.8877 173.584C84.122 174.711 83.1061 175.633 81.9373 176.263Z" fill="url(#paint0_linear_5_26)"/>
<defs>
<linearGradient id="paint0_linear_5_26" x1="125.003" y1="66" x2="125.003" y2="183.44" gradientUnits="userSpaceOnUse">
<stop stop-color="#FB9F6C"/>
<stop offset="1" stop-color="#865841"/>
</linearGradient>
</defs>
</svg>
